<svg width="40" height="25" viewBox="0 0 40 25" fill="none" xmlns="http://www.w3.org/2000/svg">
<path fill-rule="evenodd" clip-rule="evenodd" d="M0 0H40V25H0V0Z" fill="#F7FCFF"/>
<path fill-rule="evenodd" clip-rule="evenodd" d="M0 15.2781V17.3615H40V15.2781H0ZM0 19.0969V21.1802H40V19.0969H0ZM0 7.63854V9.72188H40V7.63854H0ZM0 22.9167V25H40V22.9167H0ZM0 11.4583V13.5417H40V11.4583H0ZM0 0V2.08333H40V0H0ZM0 3.81979V5.90312H40V3.81979H0Z" fill="#E31D1C"/>
<path d="M0 0H25V13.5417H0V0Z" fill="#2E42A5"/>
<path fill-rule="evenodd" clip-rule="evenodd" d="M2.15262 3.06159L1.24512 3.5918L1.55137 2.64805L0.745117 2.05013H1.79887L2.15137 1.2793L2.56512 2.05013H3.46262L2.75762 2.64805L3.03012 3.5918L2.15262 3.06159ZM7.15262 3.06159L6.24512 3.5918L6.55137 2.64805L5.74637 2.05013H6.79887L7.15137 1.2793L7.56512 2.05013H8.46262L7.75762 2.64805L8.03012 3.5918L7.15262 3.06159ZM11.2451 3.5918L12.1526 3.06055L13.0301 3.5918L12.7576 2.64805L13.4626 2.05013H12.5651L12.1514 1.2793L11.7989 2.05013H10.7464L11.5514 2.64805L11.2451 3.5918ZM17.1526 3.06055L16.2451 3.5918L16.5514 2.64805L15.7464 2.05013H16.7989L17.1514 1.2793L17.5651 2.05013H18.4626L17.7576 2.64805L18.0301 3.5918L17.1526 3.06055ZM1.24512 7.7595L2.15262 7.22825L3.03012 7.7595L2.75762 6.81575L3.46262 6.21784H2.56512L2.15137 5.447L1.79887 6.21784H0.745117L1.55137 6.81575L1.24512 7.7595ZM7.15262 7.22825L6.24512 7.7595L6.55137 6.81575L5.74637 6.21784H6.79887L7.15137 5.447L7.56512 6.21784H8.46262L7.75762 6.81575L8.03012 7.7595L7.15262 7.22825ZM11.2451 7.7595L12.1526 7.22825L13.0301 7.7595L12.7576 6.81575L13.4626 6.21784H12.5651L12.1514 5.447L11.7989 6.21784H10.7464L11.5514 6.81575L11.2451 7.7595ZM17.1526 7.22825L16.2451 7.7595L16.5514 6.81575L15.7464 6.21784H16.7989L17.1514 5.447L17.5651 6.21784H18.4626L17.7576 6.81575L18.0301 7.7595L17.1526 7.22825ZM1.24512 11.9262L2.15262 11.3949L3.03012 11.9262L2.75762 10.9824L3.46262 10.3845H2.56512L2.15137 9.61367L1.79887 10.3845H0.745117L1.55137 10.9824L1.24512 11.9251V11.9262ZM7.15262 11.3949L6.24512 11.9262L6.55137 10.9824L5.74637 10.3845H6.79887L7.15137 9.61367L7.56512 10.3845H8.46262L7.75762 10.9824L8.03012 11.9251L7.15262 11.3949ZM11.2451 11.9262L12.1526 11.3949L13.0301 11.9262L12.7576 10.9824L13.4626 10.3845H12.5651L12.1514 9.61367L11.7989 10.3845H10.7464L11.5514 10.9824L11.2451 11.9251V11.9262ZM17.1526 11.3949L16.2451 11.9262L16.5514 10.9824L15.7464 10.3845H16.7989L17.1514 9.61367L17.5651 10.3845H18.4626L17.7576 10.9824L18.0301 11.9251L17.1526 11.3949ZM21.2451 3.59284L22.1526 3.06159L23.0301 3.59284L22.7576 2.64909L23.4626 2.05117H22.5651L22.1514 1.28034L21.7989 2.05117H20.7451L21.5514 2.64909L21.2451 3.59284ZM22.1526 7.22825L21.2451 7.7595L21.5514 6.81575L20.7451 6.21784H21.7989L22.1514 5.447L22.5651 6.21784H23.4626L22.7576 6.81575L23.0301 7.7595L22.1526 7.22825ZM21.2451 11.9262L22.1526 11.3949L23.0301 11.9262L22.7576 10.9824L23.4626 10.3845H22.5651L22.1514 9.61367L21.7989 10.3845H20.7451L21.5514 10.9824L21.2451 11.9251V11.9262ZM4.65262 5.14388L3.74512 5.67513L4.05137 4.73138L3.24512 4.13346H4.29887L4.65137 3.36263L5.06512 4.13346H5.96262L5.25762 4.73138L5.53012 5.67513L4.65262 5.14388ZM8.74512 5.67513L9.65262 5.14388L10.5301 5.67513L10.2576 4.73138L10.9626 4.13346H10.0651L9.65137 3.36263L9.29887 4.13346H8.24512L9.05137 4.73138L8.74512 5.67513ZM14.6526 5.14388L13.7451 5.67513L14.0514 4.73138L13.2464 4.13346H14.2989L14.6514 3.36263L15.0651 4.13346H15.9626L15.2576 4.73138L15.5301 5.67513L14.6526 5.14388ZM3.74512 9.8418L4.65262 9.31055L5.53012 9.8418L5.25762 8.89805L5.96262 8.30013H5.06512L4.65137 7.5293L4.29887 8.30013H3.24512L4.05137 8.89805L3.74512 9.8418ZM9.65262 9.31055L8.74512 9.8418L9.05137 8.89805L8.24637 8.30013H9.29887L9.65137 7.5293L10.0651 8.30013H10.9626L10.2576 8.89805L10.5301 9.8418L9.65262 9.31055ZM13.7451 9.8418L14.6526 9.31055L15.5301 9.8418L15.2576 8.89805L15.9626 8.30013H15.0651L14.6514 7.5293L14.2989 8.30013H13.2464L14.0514 8.89805L13.7451 9.8418ZM19.6526 5.14388L18.7451 5.67513L19.0514 4.73138L18.2464 4.13346H19.2989L19.6514 3.36263L20.0651 4.13346H20.9626L20.2576 4.73138L20.5301 5.67513L19.6526 5.14388ZM18.7451 9.8418L19.6526 9.31055L20.5301 9.8418L20.2576 8.89805L20.9626 8.30013H20.0651L19.6514 7.5293L19.2989 8.30013H18.2464L19.0514 8.89805L18.7451 9.8418Z" fill="#F7FCFF"/>
</svg>
